<svg xmlns="http://www.w3.org/2000/svg" width="19.113" height="22.751" viewBox="0 0 19.113 22.751">
  <path id="Caminho_45" data-name="Caminho 45" d="M268.437,248.648a4.741,4.741,0,0,1,2.54-4.307,5.447,5.447,0,0,0-4.3-2.264c-1.8-.142-3.774,1.05-4.5,1.05-.762,0-2.507-1-3.88-1-2.832.043-5.843,2.258-5.843,6.764a12.657,12.657,0,0,0,.73,4.124c.651,1.865,3,6.434,5.444,6.36,1.28-.03,2.185-.908,3.85-.908,1.616,0,2.453.908,3.88.908,2.469-.036,4.591-4.189,5.209-6.059a5.037,5.037,0,0,1-3.133-4.668Zm-2.874-8.34a4.786,4.786,0,0,0,1.219-3.683,5.387,5.387,0,0,0-3.448,1.772,4.857,4.857,0,0,0-1.3,3.653,4.268,4.268,0,0,0,3.527-1.742Z" transform="translate(-252.457 -236.625)" fill="#fff"/>
</svg>
