<svg id="Grupo_14" data-name="Grupo 14" xmlns="http://www.w3.org/2000/svg" width="128.483" height="129" viewBox="0 0 128.483 129">
  <path id="Caminho_25" data-name="Caminho 25" d="M64.242,104.5H30.231A30.292,30.292,0,0,1,0,74.147V40H64.242Z" transform="translate(0 24.5)" fill="#fff" opacity="0.5"/>
  <path id="Caminho_26" data-name="Caminho 26" d="M104.081,64.5H39.84V0H73.85a30.292,30.292,0,0,1,30.231,30.353Z" transform="translate(24.402)" fill="#fff" opacity="0.5"/>
  <path id="Caminho_27" data-name="Caminho 27" d="M0,64.5V30.353A30.292,30.292,0,0,1,30.231,0h34.01V64.5Z" fill="#fff" opacity="0.25"/>
  <path id="Caminho_28" data-name="Caminho 28" d="M39.84,104.5V40h64.242V74.147A30.292,30.292,0,0,1,73.85,104.5Z" transform="translate(24.402 24.5)" fill="#fff" opacity="0.25"/>
  <path id="Caminho_29" data-name="Caminho 29" d="M76.6,20H27.478a7.573,7.573,0,0,0-7.558,7.588V76.912A7.573,7.573,0,0,0,27.478,84.5H76.6a7.573,7.573,0,0,0,7.558-7.588V27.588A7.573,7.573,0,0,0,76.6,20Z" transform="translate(12.201 12.25)" fill="#fff" opacity="0.6"/>
</svg>
