<svg xmlns="http://www.w3.org/2000/svg" width="234.641" height="51.461" viewBox="0 0 234.641 51.461">
  <g id="Grupo_15" data-name="Grupo 15" transform="translate(-0.88 -0.541)">
    <path id="Caminho_30" data-name="Caminho 30" d="M18.344,46.375a18.3,18.3,0,0,1-9.156-2.229,15.534,15.534,0,0,1-6.126-6.257A19.283,19.283,0,0,1,.88,28.557v-.846a19.453,19.453,0,0,1,2.183-9.4A15.679,15.679,0,0,1,9.117,12.05a18.749,18.749,0,0,1,17.453-.132,14.794,14.794,0,0,1,5.848,5.973,18.843,18.843,0,0,1,2.111,9.121v2.547H6.441a12.006,12.006,0,0,0,3.594,8.731,11.939,11.939,0,0,0,8.448,3.147q4.437,0,6.83-2.052a13.779,13.779,0,0,0,3.665-4.878l4.787,2.335a20.67,20.67,0,0,1-2.924,4.383A15.029,15.029,0,0,1,25.983,44.9,17.288,17.288,0,0,1,18.344,46.375ZM6.513,24.952H28.907a10.438,10.438,0,0,0-3.274-7.5A10.983,10.983,0,0,0,17.99,14.77a11.229,11.229,0,0,0-7.744,2.686,11.963,11.963,0,0,0-3.733,7.507Z" transform="translate(0 5.626)" fill="#fff"/>
    <path id="Caminho_31" data-name="Caminho 31" d="M24.692,45.022l13.8-17.535L25.11,10.447H31.8L42.078,23.811h.986L53.277,10.447H60.05L46.593,27.487,60.4,45.022H53.623L43.06,31.235h-.986L31.526,45.022Z" transform="translate(14.425 6.001)" fill="#fff"/>
    <path id="Caminho_32" data-name="Caminho 32" d="M63.366,46.375A16.422,16.422,0,0,1,56.819,45.1a10.7,10.7,0,0,1-4.647-3.676,9.927,9.927,0,0,1-1.693-5.868,9.572,9.572,0,0,1,1.693-5.834,10.3,10.3,0,0,1,4.647-3.465,17.877,17.877,0,0,1,6.619-1.168H75.055v-2.52a7.776,7.776,0,0,0-2.149-5.8q-2.149-2.12-6.386-2.135a9.618,9.618,0,0,0-6.48,2.014,10.209,10.209,0,0,0-3.169,5.41l-5.208-1.7A15.661,15.661,0,0,1,54.339,15.1a13.179,13.179,0,0,1,4.892-3.816,17.09,17.09,0,0,1,7.361-1.451q6.616,0,10.281,3.431t3.661,9.65V38.535c0,1.413.655,2.12,1.972,2.12h3.169v4.738H80.82a5.266,5.266,0,0,1-3.733-1.307,4.544,4.544,0,0,1-1.407-3.5v-.351h-.847a16.741,16.741,0,0,1-2.077,2.792,9.841,9.841,0,0,1-3.556,2.4A15.134,15.134,0,0,1,63.366,46.375ZM64,41.566a11.08,11.08,0,0,0,7.993-2.932Q75.055,35.7,75.055,30.4v-.778H63.649a9.575,9.575,0,0,0-5.46,1.447,4.888,4.888,0,0,0-2.145,4.353,5.3,5.3,0,0,0,2.217,4.534A9.444,9.444,0,0,0,64,41.577Z" transform="translate(30.045 5.626)" fill="#fff"/>
    <path id="Caminho_33" data-name="Caminho 33" d="M77.142,45.264V10.689h5.423V15h.986a9.964,9.964,0,0,1,3.236-3.4,11.092,11.092,0,0,1,6.341-1.553,11.033,11.033,0,0,1,6.514,1.768,10.422,10.422,0,0,1,3.624,4.311h.986a11.188,11.188,0,0,1,3.628-4.311,11.369,11.369,0,0,1,6.8-1.768,12.526,12.526,0,0,1,6.063,1.432,10.42,10.42,0,0,1,4.12,4.065,12.559,12.559,0,0,1,1.5,6.329v23.4H120.8V22.356a7.407,7.407,0,0,0-2.01-5.478,7.545,7.545,0,0,0-5.58-2.018,8.35,8.35,0,0,0-6.232,2.475q-2.427,2.475-2.431,7.141v20.78H98.972v-22.9a7.419,7.419,0,0,0-2.006-5.478,7.538,7.538,0,0,0-5.581-2.018,8.35,8.35,0,0,0-6.232,2.475q-2.427,2.475-2.431,7.141v20.78Z" transform="translate(46.197 5.759)" fill="#fff"/>
    <path id="Caminho_34" data-name="Caminho 34" d="M119.2,11.853a5.685,5.685,0,0,1-4.05-1.557A5.369,5.369,0,0,1,113.5,6.2a5.379,5.379,0,0,1,1.652-4.1,6.1,6.1,0,0,1,8.136,0A5.435,5.435,0,0,1,124.9,6.2a5.425,5.425,0,0,1-1.617,4.1,5.663,5.663,0,0,1-4.087,1.557Zm-4.437,39.169V15.953h8.873v35.07Z" transform="translate(68.217)" fill="#fff"/>
    <path id="Caminho_35" data-name="Caminho 35" d="M125.951,45.422V10.352h8.729v4.6h1.273a9.245,9.245,0,0,1,3.168-3.5c1.55-1.111,3.894-1.659,7.041-1.659a13.446,13.446,0,0,1,7.149,1.889,12.794,12.794,0,0,1,4.753,5.161,16.591,16.591,0,0,1,1.689,7.674V45.441H150.88V25.2q0-3.96-1.933-5.94a7.38,7.38,0,0,0-5.529-1.98,7.772,7.772,0,0,0-6.341,2.724q-2.255,2.724-2.258,7.6V45.422Z" transform="translate(75.763 5.601)" fill="#fff"/>
  </g>
</svg>
